<svg width="1135" height="958" viewBox="0 0 1135 958" fill="none" xmlns="http://www.w3.org/2000/svg">
<path d="M1007.47 580.313H815.944C807.319 580.313 799.047 576.749 792.947 570.406C786.848 564.062 783.422 555.458 783.422 546.487C783.422 537.516 786.848 528.912 792.947 522.568C799.047 516.225 807.319 512.661 815.944 512.661H1007.48C1016.1 512.661 1024.37 509.097 1030.47 502.753C1036.57 496.41 1040 487.806 1040 478.835C1040 469.863 1036.57 461.259 1030.47 454.916C1024.37 448.572 1016.1 445.008 1007.48 445.008H765.758C765.417 445.008 765.105 444.944 764.764 444.944H573.22C565.124 444.95 557.317 441.814 551.326 436.149C545.336 430.484 541.594 422.698 540.831 414.315C540.069 405.932 542.342 397.554 547.206 390.822C552.069 384.09 559.173 379.488 567.126 377.915H791.021C799.647 377.915 807.919 374.352 814.019 368.008C820.118 361.664 823.544 353.06 823.544 344.089C823.544 335.118 820.118 326.514 814.019 320.17C807.919 313.827 799.647 310.263 791.021 310.263H770.919C768.901 309.86 766.85 309.654 764.795 309.648H722.74C714.795 308.062 707.704 303.452 702.852 296.719C698 289.986 695.735 281.614 696.501 273.238C697.266 264.861 701.006 257.082 706.991 251.42C712.976 245.759 720.775 242.621 728.865 242.619H985.06C993.686 242.619 1001.96 239.056 1008.06 232.712C1014.16 226.368 1017.58 217.765 1017.58 208.793C1017.58 199.822 1014.16 191.218 1008.06 184.875C1001.96 178.531 993.686 174.967 985.06 174.967H793.528C784.902 174.967 776.63 171.403 770.53 165.06C764.431 158.716 761.005 150.112 761.005 141.141C761.005 132.17 764.431 123.566 770.53 117.222C776.63 110.879 784.902 107.315 793.528 107.315H985.06C993.686 107.315 1001.96 103.751 1008.06 97.4073C1014.16 91.0637 1017.58 82.4599 1017.58 73.4886C1017.58 64.5173 1014.16 55.9135 1008.06 49.5699C1001.96 43.2262 993.686 39.6624 985.06 39.6624H276.094C267.468 39.6624 259.196 43.2262 253.096 49.5699C246.997 55.9135 243.571 64.5173 243.571 73.4886C243.571 82.4599 246.997 91.0637 253.096 97.4073C259.196 103.751 267.468 107.315 276.094 107.315H467.626C475.723 107.309 483.53 110.445 489.52 116.11C495.51 121.774 499.253 129.56 500.015 137.944C500.777 146.327 498.504 154.704 493.641 161.436C488.777 168.169 481.674 172.771 473.72 174.343H249.825C241.199 174.343 232.927 177.907 226.828 184.251C220.728 190.594 217.302 199.198 217.302 208.169C217.302 217.141 220.728 225.745 226.828 232.088C232.927 238.432 241.199 241.996 249.825 241.996H269.969C271.988 242.399 274.038 242.605 276.094 242.611H318.125C326.071 244.197 333.162 248.806 338.014 255.539C342.866 262.272 345.13 270.645 344.365 279.021C343.6 287.398 339.859 295.177 333.875 300.838C327.89 306.5 320.091 309.638 312.001 309.639H55.8056C47.1771 309.639 38.9019 313.204 32.8006 319.55C26.6992 325.896 23.2716 334.503 23.2716 343.477C23.2716 352.451 26.6992 361.058 32.8006 367.404C38.9019 373.75 47.1771 377.315 55.8056 377.315H247.338C255.964 377.315 264.236 380.879 270.335 387.222C276.435 393.566 279.861 402.17 279.861 411.141C279.861 420.112 276.435 428.716 270.335 435.06C264.236 441.404 255.964 444.967 247.338 444.967H55.8056C51.512 444.926 47.253 445.77 43.2746 447.45C39.2963 449.13 35.6774 451.613 32.6272 454.756C29.5769 457.9 27.1556 461.64 25.5032 465.762C23.8508 469.884 23 474.306 23 478.772C23 483.238 23.8508 487.659 25.5032 491.781C27.1556 495.903 29.5769 499.644 32.6272 502.787C35.6774 505.93 39.2963 508.413 43.2746 510.094C47.253 511.774 51.512 512.617 55.8056 512.576H297.514C297.854 512.576 298.167 512.64 298.508 512.64H490.04C498.372 512.636 506.388 515.96 512.432 521.925C518.477 527.89 522.089 536.041 522.522 544.695C522.956 553.35 520.178 561.847 514.762 568.433C509.347 575.019 501.707 579.191 493.419 580.088H272.27C263.644 580.088 255.372 583.651 249.273 589.995C243.173 596.339 239.747 604.943 239.747 613.914C239.747 622.885 243.173 631.489 249.273 637.832C255.372 644.176 263.644 647.74 272.27 647.74H295.12C296.255 647.87 297.397 647.934 298.539 647.933H337.864C346.145 648.844 353.775 653.024 359.18 659.612C364.585 666.201 367.354 674.695 366.915 683.343C366.477 691.992 362.865 700.136 356.824 706.097C350.783 712.058 342.773 715.381 334.446 715.381H78.2506C69.625 715.381 61.3527 718.944 55.2535 725.288C49.1543 731.632 45.7278 740.235 45.7278 749.207C45.7278 758.178 49.1543 766.782 55.2535 773.125C61.3527 779.469 69.625 783.033 78.2506 783.033H269.783C278.409 783.033 286.681 786.597 292.78 792.94C298.88 799.284 302.306 807.888 302.306 816.859C302.306 825.83 298.88 834.434 292.78 840.778C286.681 847.121 278.409 850.685 269.783 850.685H78.2196C69.5941 850.685 61.3217 854.249 55.2225 860.593C49.1233 866.936 45.6968 875.54 45.6968 884.511C45.6968 893.483 49.1233 902.087 55.2225 908.43C61.3217 914.774 69.5941 918.338 78.2196 918.338H787.178C795.803 918.338 804.076 914.774 810.175 908.43C816.274 902.087 819.701 893.483 819.701 884.511C819.701 875.54 816.274 866.936 810.175 860.593C804.076 854.249 795.803 850.685 787.178 850.685H595.645C587.313 850.689 579.297 847.365 573.253 841.401C567.209 835.436 563.597 827.285 563.163 818.63C562.73 809.976 565.507 801.479 570.923 794.893C576.339 788.307 583.979 784.135 592.266 783.238H813.455C822.081 783.238 830.353 779.674 836.452 773.33C842.552 766.987 845.978 758.383 845.978 749.412C845.978 740.44 842.552 731.837 836.452 725.493C830.353 719.149 822.081 715.586 813.455 715.586H790.602C789.467 715.456 788.326 715.391 787.184 715.392H747.852C739.571 714.482 731.942 710.301 726.537 703.713C721.132 697.125 718.363 688.631 718.801 679.982C719.24 671.333 722.852 663.189 728.893 657.229C734.934 651.268 742.943 647.945 751.27 647.945H1007.47C1016.09 647.945 1024.36 644.381 1030.46 638.037C1036.56 631.694 1039.99 623.09 1039.99 614.119C1039.99 605.147 1036.56 596.544 1030.46 590.2C1024.36 583.856 1016.09 580.293 1007.47 580.293V580.313ZM532.289 242.684C540.385 242.678 548.192 245.814 554.183 251.479C560.173 257.144 563.915 264.929 564.677 273.313C565.44 281.696 563.167 290.073 558.303 296.806C553.44 303.538 546.336 308.14 538.382 309.712H508.535C500.438 309.719 492.631 306.583 486.641 300.918C480.651 295.253 476.908 287.467 476.146 279.084C475.384 270.7 477.657 262.323 482.52 255.591C487.384 248.859 494.487 244.256 502.441 242.684H532.289ZM530.982 715.372C522.65 715.376 514.635 712.052 508.59 706.087C502.546 700.122 498.934 691.971 498.501 683.317C498.067 674.663 500.845 666.165 506.26 659.579C511.676 652.993 519.316 648.821 527.603 647.924H554.742C563.075 647.921 571.09 651.244 577.135 657.209C583.179 663.174 586.791 671.325 587.224 679.979C587.658 688.634 584.88 697.131 579.465 703.717C574.049 710.303 566.409 714.475 558.121 715.372H530.982Z" fill="#F1EFFF"/>
<path d="M691 119H321C317.553 119.004 314.249 120.375 311.812 122.812C309.375 125.249 308.004 128.553 308 132V632C308.004 635.447 309.375 638.751 311.812 641.188C314.249 643.625 317.553 644.996 321 645H691C694.447 644.996 697.751 643.625 700.188 641.188C702.625 638.751 703.996 635.447 704 632V132C703.996 128.553 702.625 125.249 700.188 122.812C697.751 120.375 694.447 119.004 691 119Z" fill="url(#paint0_linear)"/>
<path d="M332.43 135C330.025 135.041 327.735 136.033 326.061 137.76C324.387 139.487 323.466 141.807 323.5 144.212V619.788C323.466 622.193 324.387 624.513 326.061 626.24C327.735 627.967 330.025 628.959 332.43 629H679.57C681.975 628.959 684.265 627.967 685.939 626.24C687.613 624.513 688.534 622.193 688.5 619.788V144.212C688.534 141.807 687.613 139.487 685.939 137.76C684.265 136.033 681.975 135.041 679.57 135H332.43Z" fill="white"/>
<path d="M350.5 157C347.191 157 344.5 160.037 344.5 163.771V229.229C344.5 232.963 347.191 236 350.5 236H661.5C664.809 236 667.5 232.963 667.5 229.229V163.771C667.5 160.037 664.809 157 661.5 157H350.5Z" fill="url(#paint1_linear)"/>
<path d="M350.5 267.75C348.887 267.775 347.349 268.439 346.224 269.596C345.099 270.753 344.479 272.309 344.5 273.922V413.828C344.479 415.441 345.099 416.997 346.224 418.154C347.349 419.311 348.887 419.975 350.5 420H661.5C663.113 419.975 664.651 419.311 665.776 418.154C666.901 416.997 667.521 415.441 667.5 413.828V273.922C667.521 272.309 666.901 270.753 665.776 269.596C664.651 268.439 663.113 267.775 661.5 267.75H350.5Z" fill="url(#paint2_linear)"/>
<path d="M629 166.25H383V180.25H629V166.25Z" fill="white"/>
<path d="M629.5 195.75H383.5V202.25H629.5V195.75Z" fill="white"/>
<path d="M629.5 207.25H383.5V213.75H629.5V207.25Z" fill="white"/>
<path d="M629.5 218.75H383.5V225.25H629.5V218.75Z" fill="white"/>
<path d="M529.163 420.25H642.374C643.094 420.25 643.799 420.036 644.398 419.636C644.997 419.235 645.464 418.666 645.74 418C646.016 417.334 646.088 416.602 645.948 415.895C645.807 415.188 645.46 414.539 644.951 414.029L572.494 341.572C571.81 340.89 570.883 340.507 569.917 340.507C568.951 340.507 568.024 340.89 567.34 341.572L549.322 359.59C548.612 360.3 547.77 360.863 546.842 361.248C545.915 361.632 544.921 361.83 543.917 361.83C542.913 361.83 541.919 361.632 540.992 361.248C540.065 360.863 539.222 360.3 538.512 359.59L482.077 303.155C481.393 302.473 480.466 302.09 479.5 302.09C478.534 302.09 477.607 302.473 476.923 303.155L366.549 413.529C366.04 414.039 365.693 414.688 365.552 415.395C365.412 416.102 365.484 416.834 365.76 417.5C366.036 418.166 366.503 418.735 367.102 419.136C367.701 419.536 368.406 419.75 369.126 419.75H529.308L529.163 420.25Z" fill="white"/>
<path d="M394.5 314.75C402.232 314.75 408.5 308.482 408.5 300.75C408.5 293.018 402.232 286.75 394.5 286.75C386.768 286.75 380.5 293.018 380.5 300.75C380.5 308.482 386.768 314.75 394.5 314.75Z" fill="white"/>
<path d="M350.5 452.75C348.887 452.775 347.349 453.439 346.224 454.596C345.099 455.753 344.479 457.309 344.5 458.922V598.828C344.479 600.441 345.099 601.997 346.224 603.154C347.349 604.311 348.887 604.975 350.5 605H661.5C663.113 604.975 664.651 604.311 665.776 603.154C666.901 601.997 667.521 600.441 667.5 598.828V458.922C667.521 457.309 666.901 455.753 665.776 454.596C664.651 453.439 663.113 452.775 661.5 452.75H350.5Z" fill="url(#paint3_linear)"/>
<path d="M529.163 605.25H642.374C643.094 605.25 643.799 605.036 644.398 604.635C644.997 604.235 645.464 603.666 645.74 603C646.016 602.334 646.088 601.601 645.948 600.894C645.807 600.187 645.46 599.538 644.951 599.028L572.494 526.572C571.81 525.89 570.883 525.507 569.917 525.507C568.951 525.507 568.025 525.89 567.34 526.572L549.322 544.59C548.613 545.3 547.77 545.863 546.843 546.248C545.915 546.632 544.921 546.83 543.917 546.83C542.913 546.83 541.919 546.632 540.991 546.248C540.064 545.863 539.221 545.3 538.512 544.59L482.077 488.155C481.393 487.473 480.466 487.09 479.5 487.09C478.534 487.09 477.607 487.473 476.923 488.155L366.549 598.528C366.04 599.038 365.693 599.687 365.552 600.394C365.412 601.101 365.484 601.834 365.76 602.5C366.036 603.166 366.503 603.735 367.102 604.135C367.701 604.536 368.406 604.75 369.126 604.75H529.308L529.163 605.25Z" fill="white"/>
<path d="M394.5 499.75C402.232 499.75 408.5 493.482 408.5 485.75C408.5 478.018 402.232 471.75 394.5 471.75C386.768 471.75 380.5 478.018 380.5 485.75C380.5 493.482 386.768 499.75 394.5 499.75Z" fill="white"/>
<path d="M451 234C448.614 234.003 446.326 234.952 444.639 236.639C442.952 238.326 442.003 240.614 442 243V743C442.003 745.386 442.952 747.674 444.639 749.361C446.326 751.048 448.614 751.997 451 752H821C823.386 751.997 825.674 751.048 827.361 749.361C829.048 747.674 829.997 745.386 830 743V243C829.997 240.614 829.048 238.326 827.361 236.639C825.674 234.952 823.386 234.003 821 234H451Z" fill="url(#paint4_linear)"/>
<path d="M461.93 248C459.525 248.041 457.235 249.033 455.561 250.76C453.887 252.487 452.966 254.807 453 257.212V732.788C452.966 735.193 453.887 737.513 455.561 739.24C457.235 740.967 459.525 741.959 461.93 742H809.07C811.475 741.959 813.765 740.967 815.439 739.24C817.113 737.513 818.034 735.193 818 732.788V257.212C818.034 254.807 817.113 252.487 815.439 250.76C813.765 249.033 811.475 248.041 809.07 248H461.93Z" fill="white"/>
<path d="M516.25 317.183C515.19 317.184 514.173 317.606 513.423 318.356C512.673 319.105 512.251 320.122 512.25 321.183V339.542C512.251 340.602 512.673 341.619 513.423 342.369C514.173 343.118 515.19 343.54 516.25 343.542H752.25C753.311 343.54 754.327 343.119 755.077 342.369C755.827 341.619 756.249 340.602 756.25 339.542V321.183C756.249 320.122 755.827 319.105 755.077 318.355C754.327 317.606 753.311 317.184 752.25 317.183H516.25Z" fill="url(#paint5_linear)"/>
<path d="M514.75 377.939C514.485 377.939 514.231 378.045 514.043 378.232C513.856 378.42 513.75 378.674 513.75 378.939V386.106C513.75 386.371 513.856 386.625 514.043 386.813C514.231 387 514.485 387.106 514.75 387.106H754.75C755.015 387.106 755.269 387 755.457 386.813C755.644 386.625 755.75 386.371 755.75 386.106V378.939C755.75 378.674 755.644 378.42 755.457 378.232C755.269 378.045 755.015 377.939 754.75 377.939H514.75Z" fill="#CCCCCC"/>
<path d="M514.75 401.234C514.485 401.234 514.231 401.34 514.043 401.527C513.856 401.715 513.75 401.969 513.75 402.234V409.401C513.75 409.666 513.856 409.92 514.043 410.108C514.231 410.295 514.485 410.401 514.75 410.401H754.75C755.015 410.401 755.269 410.295 755.457 410.108C755.644 409.92 755.75 409.666 755.75 409.401V402.234C755.75 401.969 755.644 401.715 755.457 401.527C755.269 401.34 755.015 401.234 754.75 401.234H514.75Z" fill="#CCCCCC"/>
<path d="M514.75 424.529C514.485 424.529 514.231 424.635 514.043 424.822C513.856 425.01 513.75 425.264 513.75 425.529V432.695C513.75 432.96 513.856 433.215 514.043 433.402C514.231 433.59 514.485 433.695 514.75 433.695H754.75C755.015 433.695 755.269 433.59 755.457 433.402C755.644 433.215 755.75 432.96 755.75 432.695V425.529C755.75 425.264 755.644 425.009 755.457 424.822C755.269 424.635 755.015 424.529 754.75 424.529H514.75Z" fill="#CCCCCC"/>
<path d="M514.25 471.061C513.985 471.061 513.731 471.167 513.543 471.354C513.356 471.542 513.25 471.796 513.25 472.061V479.228C513.25 479.493 513.356 479.747 513.543 479.934C513.731 480.122 513.985 480.227 514.25 480.228H754.25C754.515 480.227 754.769 480.122 754.957 479.934C755.144 479.747 755.25 479.493 755.25 479.228V472.061C755.25 471.796 755.144 471.542 754.957 471.354C754.769 471.167 754.515 471.061 754.25 471.061H514.25Z" fill="#CCCCCC"/>
<path d="M514.25 494.356C513.985 494.356 513.731 494.462 513.543 494.649C513.356 494.837 513.25 495.091 513.25 495.356V502.522C513.25 502.788 513.356 503.042 513.543 503.229C513.731 503.417 513.985 503.522 514.25 503.522H754.25C754.515 503.522 754.769 503.417 754.957 503.229C755.144 503.042 755.25 502.788 755.25 502.522V495.356C755.25 495.091 755.144 494.837 754.957 494.649C754.769 494.462 754.515 494.356 754.25 494.356H514.25Z" fill="#CCCCCC"/>
<path d="M514.25 517.65C513.985 517.651 513.731 517.756 513.543 517.944C513.356 518.131 513.25 518.385 513.25 518.65V525.817C513.25 526.083 513.356 526.337 513.543 526.524C513.731 526.712 513.985 526.817 514.25 526.817H754.25C754.515 526.817 754.769 526.712 754.957 526.524C755.144 526.337 755.25 526.083 755.25 525.817V518.65C755.25 518.385 755.144 518.131 754.957 517.943C754.769 517.756 754.515 517.651 754.25 517.65H514.25Z" fill="#CCCCCC"/>
<path d="M514.25 541.061C513.985 541.061 513.731 541.166 513.543 541.354C513.356 541.541 513.25 541.795 513.25 542.061V549.228C513.25 549.493 513.356 549.747 513.543 549.934C513.731 550.122 513.985 550.227 514.25 550.228H754.25C754.515 550.227 754.769 550.122 754.957 549.934C755.144 549.747 755.25 549.493 755.25 549.228V542.061C755.25 541.795 755.144 541.541 754.957 541.354C754.769 541.166 754.515 541.061 754.25 541.061H514.25Z" fill="#CCCCCC"/>
<path d="M514.25 564.355C513.985 564.356 513.731 564.461 513.543 564.649C513.356 564.836 513.25 565.09 513.25 565.355V572.522C513.25 572.788 513.356 573.042 513.543 573.229C513.731 573.417 513.985 573.522 514.25 573.522H754.25C754.515 573.522 754.769 573.417 754.957 573.229C755.144 573.042 755.25 572.788 755.25 572.522V565.355C755.25 565.09 755.144 564.836 754.957 564.649C754.769 564.461 754.515 564.356 754.25 564.355H514.25Z" fill="#CCCCCC"/>
<path d="M514.25 587.65C513.985 587.651 513.731 587.756 513.543 587.944C513.356 588.131 513.25 588.385 513.25 588.65V595.817C513.25 596.083 513.356 596.337 513.543 596.524C513.731 596.712 513.985 596.817 514.25 596.817H754.25C754.515 596.817 754.769 596.712 754.957 596.524C755.144 596.337 755.25 596.083 755.25 595.817V588.65C755.25 588.385 755.144 588.131 754.957 587.943C754.769 587.756 754.515 587.651 754.25 587.65H514.25Z" fill="#CCCCCC"/>
<path d="M514.25 611.061C513.985 611.061 513.731 611.166 513.543 611.354C513.356 611.541 513.25 611.795 513.25 612.061V619.228C513.25 619.493 513.356 619.747 513.543 619.934C513.731 620.122 513.985 620.227 514.25 620.228H754.25C754.515 620.227 754.769 620.122 754.957 619.934C755.144 619.747 755.25 619.493 755.25 619.228V612.061C755.25 611.795 755.144 611.541 754.957 611.354C754.769 611.166 754.515 611.061 754.25 611.061H514.25Z" fill="#CCCCCC"/>
<path d="M514.25 634.355C513.985 634.356 513.731 634.461 513.543 634.649C513.356 634.836 513.25 635.09 513.25 635.355V642.522C513.25 642.788 513.356 643.042 513.543 643.229C513.731 643.417 513.985 643.522 514.25 643.522H754.25C754.515 643.522 754.769 643.417 754.957 643.229C755.144 643.042 755.25 642.788 755.25 642.522V635.355C755.25 635.09 755.144 634.836 754.957 634.649C754.769 634.461 754.515 634.356 754.25 634.355H514.25Z" fill="#CCCCCC"/>
<path d="M514.25 657.65C513.985 657.651 513.731 657.756 513.543 657.944C513.356 658.131 513.25 658.385 513.25 658.65V665.817C513.25 666.083 513.356 666.337 513.543 666.524C513.731 666.712 513.985 666.817 514.25 666.817H754.25C754.515 666.817 754.769 666.712 754.957 666.524C755.144 666.337 755.25 666.083 755.25 665.817V658.65C755.25 658.385 755.144 658.131 754.957 657.943C754.769 657.756 754.515 657.651 754.25 657.65H514.25Z" fill="#CCCCCC"/>
<defs>
<linearGradient id="paint0_linear" x1="704" y1="119" x2="308" y2="645" gradientUnits="userSpaceOnUse">
<stop stop-color="#769EDA" stop-opacity="0.63"/>
<stop offset="1" stop-color="#00FFD1" stop-opacity="0.17"/>
</linearGradient>
<linearGradient id="paint1_linear" x1="668" y1="157" x2="344" y2="236" gradientUnits="userSpaceOnUse">
<stop stop-color="#A8ECE0"/>
<stop offset="0.463542" stop-color="#9FBDDE"/>
</linearGradient>
<linearGradient id="paint2_linear" x1="668" y1="268" x2="344" y2="420" gradientUnits="userSpaceOnUse">
<stop offset="0.0885417" stop-color="#62F7DD"/>
<stop offset="1" stop-color="#9FBDDE"/>
</linearGradient>
<linearGradient id="paint3_linear" x1="668" y1="453" x2="344" y2="605" gradientUnits="userSpaceOnUse">
<stop offset="0.109375" stop-color="#62F6DD"/>
<stop offset="1" stop-color="#9FBDDE"/>
</linearGradient>
<linearGradient id="paint4_linear" x1="830" y1="234" x2="636" y2="752" gradientUnits="userSpaceOnUse">
<stop stop-color="#9FBCDE"/>
<stop offset="1" stop-color="#BCEAE2"/>
</linearGradient>
<linearGradient id="paint5_linear" x1="756" y1="317" x2="512" y2="344" gradientUnits="userSpaceOnUse">
<stop stop-color="#BCEAE2"/>
<stop offset="1" stop-color="#9EBBDE"/>
</linearGradient>
</defs>
</svg>
