<svg width="1135" height="958" viewBox="0 0 1135 958" fill="none" xmlns="http://www.w3.org/2000/svg">
<path d="M1007.47 580.313H815.944C807.319 580.313 799.047 576.749 792.947 570.406C786.848 564.062 783.422 555.458 783.422 546.487C783.422 537.516 786.848 528.912 792.947 522.568C799.047 516.225 807.319 512.661 815.944 512.661H1007.48C1016.1 512.661 1024.37 509.097 1030.47 502.753C1036.57 496.41 1040 487.806 1040 478.835C1040 469.863 1036.57 461.259 1030.47 454.916C1024.37 448.572 1016.1 445.008 1007.48 445.008H765.758C765.417 445.008 765.105 444.944 764.764 444.944H573.22C565.124 444.95 557.317 441.814 551.326 436.149C545.336 430.484 541.594 422.698 540.831 414.315C540.069 405.932 542.342 397.554 547.206 390.822C552.069 384.09 559.173 379.488 567.126 377.915H791.021C799.647 377.915 807.919 374.352 814.019 368.008C820.118 361.664 823.544 353.06 823.544 344.089C823.544 335.118 820.118 326.514 814.019 320.17C807.919 313.827 799.647 310.263 791.021 310.263H770.919C768.901 309.86 766.85 309.654 764.795 309.648H722.74C714.795 308.062 707.704 303.452 702.852 296.719C698 289.986 695.735 281.614 696.501 273.238C697.266 264.861 701.006 257.082 706.991 251.42C712.976 245.759 720.775 242.621 728.865 242.619H985.06C993.686 242.619 1001.96 239.056 1008.06 232.712C1014.16 226.368 1017.58 217.765 1017.58 208.793C1017.58 199.822 1014.16 191.218 1008.06 184.875C1001.96 178.531 993.686 174.967 985.06 174.967H793.528C784.902 174.967 776.63 171.403 770.53 165.06C764.431 158.716 761.005 150.112 761.005 141.141C761.005 132.17 764.431 123.566 770.53 117.222C776.63 110.879 784.902 107.315 793.528 107.315H985.06C993.686 107.315 1001.96 103.751 1008.06 97.4073C1014.16 91.0637 1017.58 82.4599 1017.58 73.4886C1017.58 64.5173 1014.16 55.9135 1008.06 49.5699C1001.96 43.2262 993.686 39.6624 985.06 39.6624H276.094C267.468 39.6624 259.196 43.2262 253.096 49.5699C246.997 55.9135 243.571 64.5173 243.571 73.4886C243.571 82.4599 246.997 91.0637 253.096 97.4073C259.196 103.751 267.468 107.315 276.094 107.315H467.626C475.723 107.309 483.53 110.445 489.52 116.11C495.51 121.774 499.253 129.56 500.015 137.944C500.777 146.327 498.504 154.704 493.641 161.436C488.777 168.169 481.674 172.771 473.72 174.343H249.825C241.199 174.343 232.927 177.907 226.828 184.251C220.728 190.594 217.302 199.198 217.302 208.169C217.302 217.141 220.728 225.745 226.828 232.088C232.927 238.432 241.199 241.996 249.825 241.996H269.969C271.988 242.399 274.038 242.605 276.094 242.611H318.125C326.071 244.197 333.162 248.806 338.014 255.539C342.866 262.272 345.13 270.645 344.365 279.021C343.6 287.398 339.859 295.177 333.875 300.838C327.89 306.5 320.091 309.638 312.001 309.639H55.8056C47.1771 309.639 38.9019 313.204 32.8006 319.55C26.6992 325.896 23.2716 334.503 23.2716 343.477C23.2716 352.451 26.6992 361.058 32.8006 367.404C38.9019 373.75 47.1771 377.315 55.8056 377.315H247.338C255.964 377.315 264.236 380.879 270.335 387.222C276.435 393.566 279.861 402.17 279.861 411.141C279.861 420.112 276.435 428.716 270.335 435.06C264.236 441.404 255.964 444.967 247.338 444.967H55.8056C51.512 444.926 47.253 445.77 43.2746 447.45C39.2963 449.13 35.6774 451.613 32.6272 454.756C29.5769 457.9 27.1556 461.64 25.5032 465.762C23.8508 469.884 23 474.306 23 478.772C23 483.238 23.8508 487.659 25.5032 491.781C27.1556 495.903 29.5769 499.644 32.6272 502.787C35.6774 505.93 39.2963 508.413 43.2746 510.094C47.253 511.774 51.512 512.617 55.8056 512.576H297.514C297.854 512.576 298.167 512.64 298.508 512.64H490.04C498.372 512.636 506.388 515.96 512.432 521.925C518.477 527.89 522.089 536.041 522.522 544.695C522.956 553.35 520.178 561.847 514.762 568.433C509.347 575.019 501.707 579.191 493.419 580.088H272.27C263.644 580.088 255.372 583.651 249.273 589.995C243.173 596.339 239.747 604.943 239.747 613.914C239.747 622.885 243.173 631.489 249.273 637.832C255.372 644.176 263.644 647.74 272.27 647.74H295.12C296.255 647.87 297.397 647.934 298.539 647.933H337.864C346.145 648.844 353.775 653.024 359.18 659.612C364.585 666.201 367.354 674.695 366.915 683.343C366.477 691.992 362.865 700.136 356.824 706.097C350.783 712.058 342.773 715.381 334.446 715.381H78.2506C69.625 715.381 61.3527 718.944 55.2535 725.288C49.1543 731.632 45.7278 740.235 45.7278 749.207C45.7278 758.178 49.1543 766.782 55.2535 773.125C61.3527 779.469 69.625 783.033 78.2506 783.033H269.783C278.409 783.033 286.681 786.597 292.78 792.94C298.88 799.284 302.306 807.888 302.306 816.859C302.306 825.83 298.88 834.434 292.78 840.778C286.681 847.121 278.409 850.685 269.783 850.685H78.2196C69.5941 850.685 61.3217 854.249 55.2225 860.593C49.1233 866.936 45.6968 875.54 45.6968 884.511C45.6968 893.483 49.1233 902.087 55.2225 908.43C61.3217 914.774 69.5941 918.338 78.2196 918.338H787.178C795.803 918.338 804.076 914.774 810.175 908.43C816.274 902.087 819.701 893.483 819.701 884.511C819.701 875.54 816.274 866.936 810.175 860.593C804.076 854.249 795.803 850.685 787.178 850.685H595.645C587.313 850.689 579.297 847.365 573.253 841.401C567.209 835.436 563.597 827.285 563.163 818.63C562.73 809.976 565.507 801.479 570.923 794.893C576.339 788.307 583.979 784.135 592.266 783.238H813.455C822.081 783.238 830.353 779.674 836.452 773.33C842.552 766.987 845.978 758.383 845.978 749.412C845.978 740.44 842.552 731.837 836.452 725.493C830.353 719.149 822.081 715.586 813.455 715.586H790.602C789.467 715.456 788.326 715.391 787.184 715.392H747.852C739.571 714.482 731.942 710.301 726.537 703.713C721.132 697.125 718.363 688.631 718.801 679.982C719.24 671.333 722.852 663.189 728.893 657.229C734.934 651.268 742.943 647.945 751.27 647.945H1007.47C1016.09 647.945 1024.36 644.381 1030.46 638.037C1036.56 631.694 1039.99 623.09 1039.99 614.119C1039.99 605.147 1036.56 596.544 1030.46 590.2C1024.36 583.856 1016.09 580.293 1007.47 580.293V580.313ZM532.289 242.684C540.385 242.678 548.192 245.814 554.183 251.479C560.173 257.144 563.915 264.929 564.677 273.313C565.44 281.696 563.167 290.073 558.303 296.806C553.44 303.538 546.336 308.14 538.382 309.712H508.535C500.438 309.719 492.631 306.583 486.641 300.918C480.651 295.253 476.908 287.467 476.146 279.084C475.384 270.7 477.657 262.323 482.52 255.591C487.384 248.859 494.487 244.256 502.441 242.684H532.289ZM530.982 715.372C522.65 715.376 514.635 712.052 508.59 706.087C502.546 700.122 498.934 691.971 498.501 683.317C498.067 674.663 500.845 666.165 506.26 659.579C511.676 652.993 519.316 648.821 527.603 647.924H554.742C563.075 647.921 571.09 651.244 577.135 657.209C583.179 663.174 586.791 671.325 587.224 679.979C587.658 688.634 584.88 697.131 579.465 703.717C574.049 710.303 566.409 714.475 558.121 715.372H530.982Z" fill="#8179FF"/>
<g clip-path="url(#clip0)">
<path d="M822.57 840L332.95 799.85L386.91 132.28L876.53 172.43L822.57 840Z" fill="url(#paint0_linear)"/>
<path d="M816.7 830.47L340.27 791.39L392.78 141.81L869.21 180.88L816.7 830.47Z" fill="#6C63FF"/>
<path d="M844.86 727.75L362.44 821.09L237 163.34L719.42 70L844.86 727.75Z" fill="url(#paint1_linear)"/>
<path d="M836.67 720.15L367.25 810.98L245.19 170.94L714.61 80.12L836.67 720.15Z" fill="#E0E0E0"/>
<path d="M786.55 119.68H295.31V789.46H786.55V119.68Z" fill="url(#paint2_linear)"/>
<path d="M779.94 128.7H301.93V780.43H779.94V128.7Z" fill="white"/>
<path d="M463.01 241.15C463.53 284.76 499.06 319.69 542.36 319.15C585.66 318.61 620.36 282.84 619.82 239.22C619.651 223.009 614.499 207.242 605.062 194.059C595.625 180.876 582.361 170.916 567.07 165.53L567.31 185.87C567.417 192.942 564.717 199.769 559.8 204.854C554.884 209.939 548.152 212.869 541.08 213V213C534.019 213.04 527.229 210.284 522.195 205.333C517.16 200.383 514.289 193.641 514.21 186.58L513.97 166.24C498.817 171.991 485.8 182.263 476.684 195.664C467.568 209.064 462.794 224.944 463.01 241.15Z" fill="url(#paint3_linear)"/>
<path d="M619.85 232.84C619.85 189.22 584.75 153.84 541.44 153.84C498.13 153.84 463.03 189.2 463.03 232.84C463.002 249.054 467.963 264.884 477.24 278.182C486.518 291.479 499.663 301.6 514.89 307.17V286.83C514.884 279.769 517.674 272.993 522.649 267.983C527.624 262.973 534.379 260.135 541.44 260.09C548.5 260.135 555.256 262.973 560.231 267.983C565.206 272.993 567.995 279.769 567.99 286.83V307.18C583.219 301.609 596.364 291.487 605.642 278.187C614.92 264.888 619.88 249.056 619.85 232.84V232.84Z" fill="#6C63FF"/>
<path d="M541.49 252.34C558.136 252.34 571.63 238.747 571.63 221.98C571.63 205.213 558.136 191.62 541.49 191.62C524.844 191.62 511.35 205.213 511.35 221.98C511.35 238.747 524.844 252.34 541.49 252.34Z" fill="white" stroke="white" stroke-miterlimit="10"/>
<path d="M541.44 260.09C534.38 260.135 527.624 262.973 522.649 267.983C517.674 272.993 514.885 279.769 514.89 286.83V307.18C532.048 313.376 550.832 313.376 567.99 307.18V286.83C567.996 279.769 565.206 272.993 560.231 267.983C555.256 262.973 548.501 260.135 541.44 260.09V260.09Z" fill="white" stroke="white" stroke-miterlimit="10"/>
<path d="M511.09 220.3C508.67 215.579 507.561 210.295 507.88 205C508.223 199.691 510.619 194.724 514.56 191.15C518.95 187.38 524.9 186.05 530.65 185.59C536.4 185.13 542.23 185.41 547.89 184.28C552.576 183.319 557.023 181.434 560.972 178.735C564.921 176.036 568.293 172.577 570.89 168.56C571.25 173.01 571.61 177.56 570.76 181.92C569.91 186.28 567.67 190.62 563.89 192.92C568.47 190.79 567.97 195.79 566.98 198.78C569.25 201.54 574.76 202 575.04 205.57C575.32 209.14 575.27 212.83 573.89 216.12C572.51 219.41 573.99 225.22 570.45 225.47" fill="white"/>
<path d="M511.09 220.3C508.67 215.579 507.561 210.295 507.88 205C508.223 199.691 510.619 194.724 514.56 191.15C518.95 187.38 524.9 186.05 530.65 185.59C536.4 185.13 542.23 185.41 547.89 184.28C552.576 183.319 557.023 181.434 560.972 178.735C564.921 176.036 568.293 172.577 570.89 168.56C571.25 173.01 571.61 177.56 570.76 181.92C569.91 186.28 567.67 190.62 563.89 192.92C568.47 190.79 567.97 195.79 566.98 198.78C569.25 201.54 574.76 202 575.04 205.57C575.32 209.14 575.27 212.83 573.89 216.12C572.51 219.41 573.99 225.22 570.45 225.47" stroke="white" stroke-miterlimit="10"/>
<path d="M565.57 192.26C565.57 192.26 586.57 194.11 571.63 225.55Z" fill="white"/>
<path d="M411.64 644H346.71V709.4H411.64V644Z" fill="url(#paint4_linear)"/>
<path d="M406.03 649.64H352.3V703.76H406.03V649.64Z" fill="#6C63FF"/>
<path d="M619.85 373.38H463.13V384.66H619.85V373.38Z" fill="#69F0AE"/>
<path d="M727.32 389.17H463.13V400.45H727.32V389.17Z" fill="#E0E0E0"/>
<path d="M727.32 404.95H463.13V416.23H727.32V404.95Z" fill="#E0E0E0"/>
<path d="M619.85 514.33H463.13V525.61H619.85V514.33Z" fill="#69F0AE"/>
<path d="M727.32 530.11H463.13V541.39H727.32V530.11Z" fill="#E0E0E0"/>
<path d="M727.32 545.9H463.13V557.18H727.32V545.9Z" fill="#E0E0E0"/>
<path d="M619.85 655.27H463.13V666.55H619.85V655.27Z" fill="#6C63FF"/>
<path d="M727.32 671.06H463.13V682.34H727.32V671.06Z" fill="#E0E0E0"/>
<path d="M727.32 686.85H463.13V698.13H727.32V686.85Z" fill="#E0E0E0"/>
<path d="M255.22 574.67H218.64C214.92 523.59 172.64 483.3 120.97 483.3C66.86 483.3 22.97 527.48 22.97 581.98C22.97 636.48 66.83 680.66 120.97 680.66C168.45 680.66 208.03 646.66 216.97 601.47H255.18C258.734 601.47 262.142 600.058 264.655 597.545C267.168 595.032 268.58 591.624 268.58 588.07C268.58 584.516 267.168 581.108 264.655 578.595C262.142 576.082 258.734 574.67 255.18 574.67H255.22Z" fill="url(#paint5_linear)"/>
<path d="M122.81 490.65C72.73 490.65 32.13 531.54 32.13 581.98C32.13 632.42 72.73 673.31 122.81 673.31C172.89 673.31 213.49 632.42 213.49 581.98C213.49 531.54 172.89 490.65 122.81 490.65ZM122.81 659.79C80.15 659.79 45.57 624.96 45.57 581.99C45.57 539.02 80.15 504.19 122.81 504.19C165.47 504.19 200.05 539 200.05 582C200.05 625 165.47 659.78 122.81 659.78V659.79Z" fill="white"/>
<path d="M205.66 575.22H248.39C251.307 575.22 254.105 576.379 256.168 578.442C258.231 580.505 259.39 583.303 259.39 586.22V589C259.39 591.917 258.231 594.715 256.168 596.778C254.105 598.841 251.307 600 248.39 600H205.66V575.22Z" fill="white"/>
<path d="M122.82 660.91C166.097 660.91 201.18 625.572 201.18 581.98C201.18 538.388 166.097 503.05 122.82 503.05C79.5429 503.05 44.46 538.388 44.46 581.98C44.46 625.572 79.5429 660.91 122.82 660.91Z" fill="#6C63FF"/>
<path opacity="0.2" d="M131.57 552.55C125.46 555.75 122.51 564.55 126.57 570.17C128.19 572.4 130.57 573.88 132.64 575.72C134.71 577.56 136.46 580.13 136.1 582.87C135.747 584.541 134.973 586.093 133.85 587.38C129.74 592.82 124.67 597.99 123.34 604.69C122.14 610.77 124.34 617.13 127.92 622.18C129.92 625.05 132.61 627.71 136 628.63C139.75 629.63 143.81 628.31 147 626.02C150.19 623.73 152.54 620.57 154.88 617.46L160.33 610.22C161.82 608.22 163.33 606.09 163.49 603.61C163.68 599.35 159.69 596.16 158.33 592.13C155.81 584.65 162.76 576.92 161.83 569.07C160.4 557.21 142.1 547 131.57 552.55Z" fill="black"/>
</g>
<defs>
<linearGradient id="paint0_linear" x1="577.63" y1="819.993" x2="631.948" y2="152.168" gradientUnits="userSpaceOnUse">
<stop stop-color="#808080" stop-opacity="0.25"/>
<stop offset="0.54" stop-color="#808080" stop-opacity="0.12"/>
<stop offset="1" stop-color="#808080" stop-opacity="0.1"/>
</linearGradient>
<linearGradient id="paint1_linear" x1="522399" y1="509473" x2="427462" y2="15080.1" gradientUnits="userSpaceOnUse">
<stop stop-color="#808080" stop-opacity="0.25"/>
<stop offset="0.54" stop-color="#808080" stop-opacity="0.12"/>
<stop offset="1" stop-color="#808080" stop-opacity="0.1"/>
</linearGradient>
<linearGradient id="paint2_linear" x1="254723" y1="482000" x2="254723" y2="33394.3" gradientUnits="userSpaceOnUse">
<stop stop-color="#808080" stop-opacity="0.25"/>
<stop offset="0.54" stop-color="#808080" stop-opacity="0.12"/>
<stop offset="1" stop-color="#808080" stop-opacity="0.1"/>
</linearGradient>
<linearGradient id="paint3_linear" x1="546.412" y1="317.875" x2="538.42" y2="163.719" gradientUnits="userSpaceOnUse">
<stop stop-opacity="0.12"/>
<stop offset="0.55" stop-opacity="0.09"/>
<stop offset="1" stop-opacity="0.02"/>
</linearGradient>
<linearGradient id="paint4_linear" x1="23472.8" y1="42460.8" x2="23472.8" y2="38183.6" gradientUnits="userSpaceOnUse">
<stop stop-color="#808080" stop-opacity="0.25"/>
<stop offset="0.54" stop-color="#808080" stop-opacity="0.12"/>
<stop offset="1" stop-color="#808080" stop-opacity="0.1"/>
</linearGradient>
<linearGradient id="paint5_linear" x1="72723.5" y1="133832" x2="72723.5" y2="94880.6" gradientUnits="userSpaceOnUse">
<stop stop-color="#808080" stop-opacity="0.25"/>
<stop offset="0.54" stop-color="#808080" stop-opacity="0.12"/>
<stop offset="1" stop-color="#808080" stop-opacity="0.1"/>
</linearGradient>
<clipPath id="clip0">
<rect x="23" y="70" width="853.53" height="770" fill="white"/>
</clipPath>
</defs>
</svg>
