<svg width="1135" height="958" viewBox="0 0 1135 958" fill="none" xmlns="http://www.w3.org/2000/svg">
<path d="M1007.47 580.313H815.944C807.319 580.313 799.047 576.749 792.947 570.406C786.848 564.062 783.422 555.458 783.422 546.487C783.422 537.516 786.848 528.912 792.947 522.568C799.047 516.225 807.319 512.661 815.944 512.661H1007.48C1016.1 512.661 1024.37 509.097 1030.47 502.753C1036.57 496.41 1040 487.806 1040 478.835C1040 469.863 1036.57 461.259 1030.47 454.916C1024.37 448.572 1016.1 445.008 1007.48 445.008H765.758C765.417 445.008 765.105 444.944 764.764 444.944H573.22C565.124 444.95 557.317 441.814 551.326 436.149C545.336 430.484 541.594 422.698 540.831 414.315C540.069 405.932 542.342 397.554 547.206 390.822C552.069 384.09 559.173 379.488 567.126 377.915H791.021C799.647 377.915 807.919 374.352 814.019 368.008C820.118 361.664 823.544 353.06 823.544 344.089C823.544 335.118 820.118 326.514 814.019 320.17C807.919 313.827 799.647 310.263 791.021 310.263H770.919C768.901 309.86 766.85 309.654 764.795 309.648H722.74C714.795 308.062 707.704 303.452 702.852 296.719C698 289.986 695.735 281.614 696.501 273.238C697.266 264.861 701.006 257.082 706.991 251.42C712.976 245.759 720.775 242.621 728.865 242.619H985.06C993.686 242.619 1001.96 239.056 1008.06 232.712C1014.16 226.368 1017.58 217.765 1017.58 208.793C1017.58 199.822 1014.16 191.218 1008.06 184.875C1001.96 178.531 993.686 174.967 985.06 174.967H793.528C784.902 174.967 776.63 171.403 770.53 165.06C764.431 158.716 761.005 150.112 761.005 141.141C761.005 132.17 764.431 123.566 770.53 117.222C776.63 110.879 784.902 107.315 793.528 107.315H985.06C993.686 107.315 1001.96 103.751 1008.06 97.4073C1014.16 91.0637 1017.58 82.4599 1017.58 73.4886C1017.58 64.5173 1014.16 55.9135 1008.06 49.5699C1001.96 43.2262 993.686 39.6624 985.06 39.6624H276.094C267.468 39.6624 259.196 43.2262 253.096 49.5699C246.997 55.9135 243.571 64.5173 243.571 73.4886C243.571 82.4599 246.997 91.0637 253.096 97.4073C259.196 103.751 267.468 107.315 276.094 107.315H467.626C475.723 107.309 483.53 110.445 489.52 116.11C495.51 121.774 499.253 129.56 500.015 137.944C500.777 146.327 498.504 154.704 493.641 161.436C488.777 168.169 481.674 172.771 473.72 174.343H249.825C241.199 174.343 232.927 177.907 226.828 184.251C220.728 190.594 217.302 199.198 217.302 208.169C217.302 217.141 220.728 225.745 226.828 232.088C232.927 238.432 241.199 241.996 249.825 241.996H269.969C271.988 242.399 274.038 242.605 276.094 242.611H318.125C326.071 244.197 333.162 248.806 338.014 255.539C342.866 262.272 345.13 270.645 344.365 279.021C343.6 287.398 339.859 295.177 333.875 300.838C327.89 306.5 320.091 309.638 312.001 309.639H55.8056C47.1771 309.639 38.9019 313.204 32.8006 319.55C26.6992 325.896 23.2716 334.503 23.2716 343.477C23.2716 352.451 26.6992 361.058 32.8006 367.404C38.9019 373.75 47.1771 377.315 55.8056 377.315H247.338C255.964 377.315 264.236 380.879 270.335 387.222C276.435 393.566 279.861 402.17 279.861 411.141C279.861 420.112 276.435 428.716 270.335 435.06C264.236 441.404 255.964 444.967 247.338 444.967H55.8056C51.512 444.926 47.253 445.77 43.2746 447.45C39.2963 449.13 35.6774 451.613 32.6272 454.756C29.5769 457.9 27.1556 461.64 25.5032 465.762C23.8508 469.884 23 474.306 23 478.772C23 483.238 23.8508 487.659 25.5032 491.781C27.1556 495.903 29.5769 499.644 32.6272 502.787C35.6774 505.93 39.2963 508.413 43.2746 510.094C47.253 511.774 51.512 512.617 55.8056 512.576H297.514C297.854 512.576 298.167 512.64 298.508 512.64H490.04C498.372 512.636 506.388 515.96 512.432 521.925C518.477 527.89 522.089 536.041 522.522 544.695C522.956 553.35 520.178 561.847 514.762 568.433C509.347 575.019 501.707 579.191 493.419 580.088H272.27C263.644 580.088 255.372 583.651 249.273 589.995C243.173 596.339 239.747 604.943 239.747 613.914C239.747 622.885 243.173 631.489 249.273 637.832C255.372 644.176 263.644 647.74 272.27 647.74H295.12C296.255 647.87 297.397 647.934 298.539 647.933H337.864C346.145 648.844 353.775 653.024 359.18 659.612C364.585 666.201 367.354 674.695 366.915 683.343C366.477 691.992 362.865 700.136 356.824 706.097C350.783 712.058 342.773 715.381 334.446 715.381H78.2506C69.625 715.381 61.3527 718.944 55.2535 725.288C49.1543 731.632 45.7278 740.235 45.7278 749.207C45.7278 758.178 49.1543 766.782 55.2535 773.125C61.3527 779.469 69.625 783.033 78.2506 783.033H269.783C278.409 783.033 286.681 786.597 292.78 792.94C298.88 799.284 302.306 807.888 302.306 816.859C302.306 825.83 298.88 834.434 292.78 840.778C286.681 847.121 278.409 850.685 269.783 850.685H78.2196C69.5941 850.685 61.3217 854.249 55.2225 860.593C49.1233 866.936 45.6968 875.54 45.6968 884.511C45.6968 893.483 49.1233 902.087 55.2225 908.43C61.3217 914.774 69.5941 918.338 78.2196 918.338H787.178C795.803 918.338 804.076 914.774 810.175 908.43C816.274 902.087 819.701 893.483 819.701 884.511C819.701 875.54 816.274 866.936 810.175 860.593C804.076 854.249 795.803 850.685 787.178 850.685H595.645C587.313 850.689 579.297 847.365 573.253 841.401C567.209 835.436 563.597 827.285 563.163 818.63C562.73 809.976 565.507 801.479 570.923 794.893C576.339 788.307 583.979 784.135 592.266 783.238H813.455C822.081 783.238 830.353 779.674 836.452 773.33C842.552 766.987 845.978 758.383 845.978 749.412C845.978 740.44 842.552 731.837 836.452 725.493C830.353 719.149 822.081 715.586 813.455 715.586H790.602C789.467 715.456 788.326 715.391 787.184 715.392H747.852C739.571 714.482 731.942 710.301 726.537 703.713C721.132 697.125 718.363 688.631 718.801 679.982C719.24 671.333 722.852 663.189 728.893 657.229C734.934 651.268 742.943 647.945 751.27 647.945H1007.47C1016.09 647.945 1024.36 644.381 1030.46 638.037C1036.56 631.694 1039.99 623.09 1039.99 614.119C1039.99 605.147 1036.56 596.544 1030.46 590.2C1024.36 583.856 1016.09 580.293 1007.47 580.293V580.313ZM532.289 242.684C540.385 242.678 548.192 245.814 554.183 251.479C560.173 257.144 563.915 264.929 564.677 273.313C565.44 281.696 563.167 290.073 558.303 296.806C553.44 303.538 546.336 308.14 538.382 309.712H508.535C500.438 309.719 492.631 306.583 486.641 300.918C480.651 295.253 476.908 287.467 476.146 279.084C475.384 270.7 477.657 262.323 482.52 255.591C487.384 248.859 494.487 244.256 502.441 242.684H532.289ZM530.982 715.372C522.65 715.376 514.635 712.052 508.59 706.087C502.546 700.122 498.934 691.971 498.501 683.317C498.067 674.663 500.845 666.165 506.26 659.579C511.676 652.993 519.316 648.821 527.603 647.924H554.742C563.075 647.921 571.09 651.244 577.135 657.209C583.179 663.174 586.791 671.325 587.224 679.979C587.658 688.634 584.88 697.131 579.465 703.717C574.049 710.303 566.409 714.475 558.121 715.372H530.982Z" fill="#8179FF"/>
<g clip-path="url(#clip0)">
<path d="M378.793 403.434C378.793 403.434 461.793 407.434 466.793 436.434C471.793 465.434 369.793 439.434 369.793 439.434L378.793 403.434Z" fill="#A0616A"/>
<path d="M247.793 311.434C247.793 311.434 261.793 315.434 272.793 339.434C283.793 363.434 305.793 385.434 305.793 385.434L394.793 402.434L379.793 447.434L294.793 436.434L241.793 406.434L247.793 311.434Z" fill="#575A89"/>
<path opacity="0.1" d="M247.793 311.434C247.793 311.434 261.793 315.434 272.793 339.434C283.793 363.434 305.793 385.434 305.793 385.434L394.793 402.434L379.793 447.434L294.793 436.434L241.793 406.434L247.793 311.434Z" fill="black"/>
<path d="M929.293 229.934H824.293V231.934H929.293V229.934Z" fill="#3F3D56"/>
<path d="M742.293 229.934H409.293V231.934H742.293V229.934Z" fill="#3F3D56"/>
<path d="M819.293 470.934H30.2931V771.934H819.293V470.934Z" fill="#3F3D56"/>
<path d="M115.793 265.434L124.793 322.434L186.793 325.434L179.793 241.434L115.793 265.434Z" fill="#A0616A"/>
<path d="M50.2931 645.934L47.2931 771.934H141.293L155.293 721.934L166.293 771.934H264.293C264.293 771.934 266.293 627.934 255.293 626.934C244.293 625.934 50.2931 645.934 50.2931 645.934Z" fill="#2F2E41"/>
<path d="M135.793 280.434C165.616 280.434 189.793 256.258 189.793 226.434C189.793 196.611 165.616 172.434 135.793 172.434C105.97 172.434 81.7931 196.611 81.7931 226.434C81.7931 256.258 105.97 280.434 135.793 280.434Z" fill="#A0616A"/>
<path d="M44.7931 651.434L72.7931 513.434L35.7931 330.434L121.007 298.458L162.793 293.434L183.8 289.513L198.793 293.434C198.793 293.434 258.793 308.434 261.793 319.434C264.793 330.434 249.793 420.434 249.793 420.434L235.793 494.434L266.793 627.434C266.793 627.434 137.793 671.434 46.7931 651.434H44.7931Z" fill="#575A89"/>
<path opacity="0.1" d="M82.293 380.934V417.934L200.285 418.095L88.293 405.934L82.293 380.934Z" fill="black"/>
<path opacity="0.1" d="M72.1589 483.12L220.293 461.934L72.1589 503.89V483.12Z" fill="black"/>
<path opacity="0.1" d="M307.293 385.934L291.412 443.159L318.293 387.822L307.293 385.934Z" fill="black"/>
<path d="M180.234 172.278L190.164 168.302C190.164 168.302 169.401 145.444 140.514 147.432L148.638 138.487C148.638 138.487 128.778 130.536 110.724 151.407C101.233 162.378 90.2515 175.275 83.4059 189.802H72.7715L77.2099 199.575L61.6754 209.348L77.62 207.592C76.6699 212.944 76.5241 218.408 77.1873 223.803C77.8713 229.199 80.6252 234.119 84.8677 237.523V237.523C84.8677 237.523 97.1828 212.032 97.1828 208.057V217.995C97.1828 217.995 107.113 209.051 107.113 203.087L112.529 210.044L115.237 199.112L148.638 210.044L143.222 201.1L163.985 204.081L155.86 193.149C155.86 193.149 179.331 206.069 180.234 217.001C181.137 227.934 188.007 238.293 188.007 238.293C188.007 238.293 206.413 187.186 180.234 172.278Z" fill="#2F2E41"/>
<path d="M617.293 371.934H233.293V772.934H617.293V371.934Z" fill="#D0CDE1"/>
<path d="M557.293 459.934H273.293V499.934H557.293V459.934Z" fill="#6C63FF"/>
<path d="M508.111 565.934H322.116V585.934H508.111V565.934Z" fill="#6C63FF"/>
<path d="M508.47 600.934H322.475V620.934H508.47V600.934Z" fill="#6C63FF"/>
<path d="M415.832 635.934H322.834V655.934H415.832V635.934Z" fill="#6C63FF"/>
<path d="M562.293 736.934H519.293V756.934H562.293V736.934Z" fill="#6C63FF"/>
<path d="M205.793 422.434C205.793 422.434 292.793 409.434 305.793 428.434C318.793 447.434 213.793 457.434 213.793 457.434L205.793 422.434Z" fill="#A0616A"/>
<path d="M45.7931 329.434H39.5272C36.9501 329.427 34.4655 330.394 32.5714 332.141C26.6234 337.664 14.0468 351.916 8.79306 377.434C1.79306 411.434 -10.2069 477.434 16.7931 482.434C43.7931 487.434 220.793 463.434 220.793 463.434L207.793 417.434L79.7931 418.434C79.7931 418.434 81.7931 396.434 77.7931 382.434C73.7931 368.434 45.7931 329.434 45.7931 329.434Z" fill="#575A89"/>
<path d="M409.293 271.934C431.937 271.934 450.293 253.578 450.293 230.934C450.293 208.291 431.937 189.934 409.293 189.934C386.649 189.934 368.293 208.291 368.293 230.934C368.293 253.578 386.649 271.934 409.293 271.934Z" fill="#D0CDE1"/>
<path d="M596.293 271.934C618.937 271.934 637.293 253.578 637.293 230.934C637.293 208.291 618.937 189.934 596.293 189.934C573.649 189.934 555.293 208.291 555.293 230.934C555.293 253.578 573.649 271.934 596.293 271.934Z" fill="#3F3D56"/>
<path d="M783.293 272.934C774.986 272.934 766.866 270.471 759.959 265.856C753.052 261.241 747.669 254.681 744.49 247.007C741.311 239.332 740.479 230.888 742.1 222.74C743.721 214.593 747.721 207.11 753.595 201.236C759.468 195.362 766.952 191.362 775.099 189.741C783.246 188.121 791.691 188.952 799.366 192.131C807.04 195.31 813.6 200.693 818.215 207.6C822.83 214.507 825.293 222.627 825.293 230.934C825.28 242.07 820.851 252.745 812.978 260.619C805.104 268.493 794.428 272.922 783.293 272.934V272.934ZM783.293 190.934C775.382 190.934 767.648 193.28 761.07 197.676C754.492 202.071 749.365 208.318 746.338 215.627C743.31 222.936 742.518 230.979 744.062 238.738C745.605 246.497 749.415 253.624 755.009 259.219C760.603 264.813 767.73 268.622 775.489 270.166C783.249 271.709 791.291 270.917 798.6 267.889C805.909 264.862 812.157 259.735 816.552 253.157C820.947 246.579 823.293 238.846 823.293 230.934C823.281 220.329 819.063 210.162 811.564 202.663C804.065 195.164 793.898 190.946 783.293 190.934Z" fill="#3F3D56"/>
<path d="M970.293 272.934C961.986 272.934 953.866 270.471 946.959 265.856C940.052 261.241 934.669 254.681 931.49 247.007C928.311 239.332 927.479 230.888 929.1 222.74C930.721 214.593 934.721 207.11 940.594 201.236C946.468 195.362 953.952 191.362 962.099 189.741C970.246 188.121 978.691 188.952 986.366 192.131C994.04 195.31 1000.6 200.693 1005.21 207.6C1009.83 214.507 1012.29 222.627 1012.29 230.934C1012.28 242.07 1007.85 252.745 999.978 260.619C992.104 268.493 981.428 272.922 970.293 272.934V272.934ZM970.293 190.934C962.382 190.934 954.648 193.28 948.07 197.676C941.492 202.071 936.365 208.318 933.338 215.627C930.31 222.936 929.518 230.979 931.062 238.738C932.605 246.497 936.415 253.624 942.009 259.219C947.603 264.813 954.73 268.622 962.489 270.166C970.249 271.709 978.291 270.917 985.6 267.889C992.909 264.862 999.156 259.735 1003.55 253.157C1007.95 246.579 1010.29 238.846 1010.29 230.934C1010.28 220.329 1006.06 210.162 998.564 202.663C991.065 195.164 980.898 190.946 970.293 190.934Z" fill="#3F3D56"/>
<path d="M403.641 248.377L385.873 224.688L392.273 219.887L404.506 236.197L460.745 179.959L466.401 185.615L403.641 248.377Z" fill="#3F3D56"/>
<path d="M833.09 770.831H16.4957V773.613H833.09V770.831Z" fill="#3F3D56"/>
</g>
<defs>
<clipPath id="clip0">
<rect y="137" width="1012.29" height="636.613" fill="white"/>
</clipPath>
</defs>
</svg>
