<svg width="1135" height="958" viewBox="0 0 1135 958" fill="none" xmlns="http://www.w3.org/2000/svg">
<path d="M1007.47 580.313H815.944C807.319 580.313 799.047 576.749 792.947 570.406C786.848 564.062 783.422 555.458 783.422 546.487C783.422 537.516 786.848 528.912 792.947 522.568C799.047 516.225 807.319 512.661 815.944 512.661H1007.48C1016.1 512.661 1024.37 509.097 1030.47 502.753C1036.57 496.41 1040 487.806 1040 478.835C1040 469.863 1036.57 461.259 1030.47 454.916C1024.37 448.572 1016.1 445.008 1007.48 445.008H765.758C765.417 445.008 765.105 444.944 764.764 444.944H573.22C565.124 444.95 557.317 441.814 551.326 436.149C545.336 430.484 541.594 422.698 540.831 414.315C540.069 405.932 542.342 397.554 547.206 390.822C552.069 384.09 559.173 379.488 567.126 377.915H791.021C799.647 377.915 807.919 374.352 814.019 368.008C820.118 361.664 823.544 353.06 823.544 344.089C823.544 335.118 820.118 326.514 814.019 320.17C807.919 313.827 799.647 310.263 791.021 310.263H770.919C768.901 309.86 766.85 309.654 764.795 309.648H722.74C714.795 308.062 707.704 303.452 702.852 296.719C698 289.986 695.735 281.614 696.501 273.238C697.266 264.861 701.006 257.082 706.991 251.42C712.976 245.759 720.775 242.621 728.865 242.619H985.06C993.686 242.619 1001.96 239.056 1008.06 232.712C1014.16 226.368 1017.58 217.765 1017.58 208.793C1017.58 199.822 1014.16 191.218 1008.06 184.875C1001.96 178.531 993.686 174.967 985.06 174.967H793.528C784.902 174.967 776.63 171.403 770.53 165.06C764.431 158.716 761.005 150.112 761.005 141.141C761.005 132.17 764.431 123.566 770.53 117.222C776.63 110.879 784.902 107.315 793.528 107.315H985.06C993.686 107.315 1001.96 103.751 1008.06 97.4073C1014.16 91.0637 1017.58 82.4599 1017.58 73.4886C1017.58 64.5173 1014.16 55.9135 1008.06 49.5699C1001.96 43.2262 993.686 39.6624 985.06 39.6624H276.094C267.468 39.6624 259.196 43.2262 253.096 49.5699C246.997 55.9135 243.571 64.5173 243.571 73.4886C243.571 82.4599 246.997 91.0637 253.096 97.4073C259.196 103.751 267.468 107.315 276.094 107.315H467.626C475.723 107.309 483.53 110.445 489.52 116.11C495.51 121.774 499.253 129.56 500.015 137.944C500.777 146.327 498.504 154.704 493.641 161.436C488.777 168.169 481.674 172.771 473.72 174.343H249.825C241.199 174.343 232.927 177.907 226.828 184.251C220.728 190.594 217.302 199.198 217.302 208.169C217.302 217.141 220.728 225.745 226.828 232.088C232.927 238.432 241.199 241.996 249.825 241.996H269.969C271.988 242.399 274.038 242.605 276.094 242.611H318.125C326.071 244.197 333.162 248.806 338.014 255.539C342.866 262.272 345.13 270.645 344.365 279.021C343.6 287.398 339.859 295.177 333.875 300.838C327.89 306.5 320.091 309.638 312.001 309.639H55.8056C47.1771 309.639 38.9019 313.204 32.8006 319.55C26.6992 325.896 23.2716 334.503 23.2716 343.477C23.2716 352.451 26.6992 361.058 32.8006 367.404C38.9019 373.75 47.1771 377.315 55.8056 377.315H247.338C255.964 377.315 264.236 380.879 270.335 387.222C276.435 393.566 279.861 402.17 279.861 411.141C279.861 420.112 276.435 428.716 270.335 435.06C264.236 441.404 255.964 444.967 247.338 444.967H55.8056C51.512 444.926 47.253 445.77 43.2746 447.45C39.2963 449.13 35.6774 451.613 32.6272 454.756C29.5769 457.9 27.1556 461.64 25.5032 465.762C23.8508 469.884 23 474.306 23 478.772C23 483.238 23.8508 487.659 25.5032 491.781C27.1556 495.903 29.5769 499.644 32.6272 502.787C35.6774 505.93 39.2963 508.413 43.2746 510.094C47.253 511.774 51.512 512.617 55.8056 512.576H297.514C297.854 512.576 298.167 512.64 298.508 512.64H490.04C498.372 512.636 506.388 515.96 512.432 521.925C518.477 527.89 522.089 536.041 522.522 544.695C522.956 553.35 520.178 561.847 514.762 568.433C509.347 575.019 501.707 579.191 493.419 580.088H272.27C263.644 580.088 255.372 583.651 249.273 589.995C243.173 596.339 239.747 604.943 239.747 613.914C239.747 622.885 243.173 631.489 249.273 637.832C255.372 644.176 263.644 647.74 272.27 647.74H295.12C296.255 647.87 297.397 647.934 298.539 647.933H337.864C346.145 648.844 353.775 653.024 359.18 659.612C364.585 666.201 367.354 674.695 366.915 683.343C366.477 691.992 362.865 700.136 356.824 706.097C350.783 712.058 342.773 715.381 334.446 715.381H78.2506C69.625 715.381 61.3527 718.944 55.2535 725.288C49.1543 731.632 45.7278 740.235 45.7278 749.207C45.7278 758.178 49.1543 766.782 55.2535 773.125C61.3527 779.469 69.625 783.033 78.2506 783.033H269.783C278.409 783.033 286.681 786.597 292.78 792.94C298.88 799.284 302.306 807.888 302.306 816.859C302.306 825.83 298.88 834.434 292.78 840.778C286.681 847.121 278.409 850.685 269.783 850.685H78.2196C69.5941 850.685 61.3217 854.249 55.2225 860.593C49.1233 866.936 45.6968 875.54 45.6968 884.511C45.6968 893.483 49.1233 902.087 55.2225 908.43C61.3217 914.774 69.5941 918.338 78.2196 918.338H787.178C795.803 918.338 804.076 914.774 810.175 908.43C816.274 902.087 819.701 893.483 819.701 884.511C819.701 875.54 816.274 866.936 810.175 860.593C804.076 854.249 795.803 850.685 787.178 850.685H595.645C587.313 850.689 579.297 847.365 573.253 841.401C567.209 835.436 563.597 827.285 563.163 818.63C562.73 809.976 565.507 801.479 570.923 794.893C576.339 788.307 583.979 784.135 592.266 783.238H813.455C822.081 783.238 830.353 779.674 836.452 773.33C842.552 766.987 845.978 758.383 845.978 749.412C845.978 740.44 842.552 731.837 836.452 725.493C830.353 719.149 822.081 715.586 813.455 715.586H790.602C789.467 715.456 788.326 715.391 787.184 715.392H747.852C739.571 714.482 731.942 710.301 726.537 703.713C721.132 697.125 718.363 688.631 718.801 679.982C719.24 671.333 722.852 663.189 728.893 657.229C734.934 651.268 742.943 647.945 751.27 647.945H1007.47C1016.09 647.945 1024.36 644.381 1030.46 638.037C1036.56 631.694 1039.99 623.09 1039.99 614.119C1039.99 605.147 1036.56 596.544 1030.46 590.2C1024.36 583.856 1016.09 580.293 1007.47 580.293V580.313ZM532.289 242.684C540.385 242.678 548.192 245.814 554.183 251.479C560.173 257.144 563.915 264.929 564.677 273.313C565.44 281.696 563.167 290.073 558.303 296.806C553.44 303.538 546.336 308.14 538.382 309.712H508.535C500.438 309.719 492.631 306.583 486.641 300.918C480.651 295.253 476.908 287.467 476.146 279.084C475.384 270.7 477.657 262.323 482.52 255.591C487.384 248.859 494.487 244.256 502.441 242.684H532.289ZM530.982 715.372C522.65 715.376 514.635 712.052 508.59 706.087C502.546 700.122 498.934 691.971 498.501 683.317C498.067 674.663 500.845 666.165 506.26 659.579C511.676 652.993 519.316 648.821 527.603 647.924H554.742C563.075 647.921 571.09 651.244 577.135 657.209C583.179 663.174 586.791 671.325 587.224 679.979C587.658 688.634 584.88 697.131 579.465 703.717C574.049 710.303 566.409 714.475 558.121 715.372H530.982Z" fill="#F1EEFF"/>
<g clip-path="url(#clip0)">
<g opacity="0.5">
<path opacity="0.5" d="M552.803 105.025L471.141 646.269L862.867 705.372L944.529 164.128L552.803 105.025Z" fill="url(#paint0_linear)"/>
</g>
<path d="M557.191 109.765L477.334 639.045L859.093 696.644L938.95 167.365L557.191 109.765Z" fill="#F5F5F5"/>
<path d="M848.926 388.54L573.394 346.968L570.874 363.669L846.406 405.241L848.926 388.54Z" fill="#E0E0E0"/>
<path d="M842.627 430.283L567.096 388.711L564.576 405.412L840.108 446.984L842.627 430.283Z" fill="#E0E0E0"/>
<path d="M869.077 254.945L727.133 233.529L724.613 250.23L866.557 271.646L869.077 254.945Z" fill="#E0E0E0"/>
<path d="M850.26 294.81L733.363 277.172L730.843 293.873L847.74 311.511L850.26 294.81Z" fill="#6C63FF"/>
<path d="M802.931 466.994L560.792 430.461L558.272 447.162L800.411 483.695L802.931 466.994Z" fill="#E0E0E0"/>
<path d="M763.225 503.704L554.487 472.21L551.967 488.911L760.705 520.405L763.225 503.704Z" fill="#E0E0E0"/>
<path d="M731.88 541.671L548.189 513.956L545.67 530.657L729.361 558.372L731.88 541.671Z" fill="#E0E0E0"/>
<path d="M775.676 590.978L541.892 555.705L539.372 572.406L773.156 607.679L775.676 590.978Z" fill="#E0E0E0"/>
<path d="M627.442 611.306L535.601 597.449L533.081 614.15L624.922 628.007L627.442 611.306Z" fill="#6C63FF"/>
<g opacity="0.5">
<path opacity="0.5" d="M700.23 256.5C701.68 246.879 700.615 237.046 697.137 227.959C693.66 218.872 687.89 210.839 680.387 204.644C672.885 198.448 663.906 194.3 654.326 192.604C644.745 190.908 634.888 191.72 625.714 194.963C616.541 198.206 608.363 203.769 601.977 211.11C595.591 218.451 591.215 227.32 589.273 236.854C587.331 246.388 587.891 256.263 590.898 265.516C593.904 274.77 599.255 283.088 606.43 289.66C606.43 289.74 606.43 289.83 606.43 289.91C607.983 291.938 609.924 293.638 612.14 294.91L612.25 294.67C614.52 297.3 624.97 302.54 637.6 304.41H637.88C645.88 305.63 654.77 305.52 663.02 302.54C663.02 302.54 663.11 302.4 663.26 302.14C665.332 301.522 667.291 300.573 669.06 299.33L669.24 298.71C677.439 294.711 684.543 288.78 689.941 281.427C695.339 274.074 698.87 265.52 700.23 256.5V256.5Z" fill="url(#paint1_linear)"/>
</g>
<path d="M698.308 254.196C702.812 224.34 682.261 196.486 652.406 191.981C622.55 187.477 594.696 208.028 590.191 237.883C585.687 267.739 606.238 295.593 636.093 300.098C665.949 304.602 693.803 284.051 698.308 254.196Z" fill="#F5F5F5"/>
<path d="M619.33 264.05C619.33 264.05 606.33 263.16 606.16 287.14C607.669 289.1 609.552 290.742 611.7 291.97L622.64 268.54L619.33 264.05Z" fill="#FDA57D"/>
<path d="M661.13 270.36C661.13 270.36 673.85 273.36 666.91 296.31C664.891 297.745 662.606 298.765 660.19 299.31L656.64 273.7L661.13 270.36Z" fill="#FDA57D"/>
<path d="M625.69 225.69C625.69 225.69 616.87 242.6 613.78 240.42C613.78 240.42 641.84 273.15 674.53 249.58C671.987 243.209 668.69 237.166 664.71 231.58L625.69 225.69Z" fill="#333333"/>
<path d="M670.631 230.773C672.627 217.541 663.519 205.196 650.287 203.2C637.055 201.203 624.71 210.311 622.713 223.544C620.717 236.776 629.825 249.121 643.057 251.117C656.289 253.114 668.634 244.005 670.631 230.773Z" fill="#333333"/>
<path opacity="0.1" d="M660.88 270.32L619.08 264.02L612.66 280.15C612.66 280.15 609.2 287.54 611.54 291.38C613.88 295.22 639.33 306.97 660.54 299.38C662.919 295.179 663.853 290.313 663.2 285.53C662.15 277.39 662.73 284.89 662.73 284.89L660.88 270.32Z" fill="black"/>
<path opacity="0.1" d="M661.44 270.41L619.64 264.11L613.23 280.23C613.23 280.23 609.77 287.62 612.11 291.46C614.45 295.3 639.9 307.05 661.11 299.46C663.489 295.259 664.424 290.393 663.77 285.61C662.72 277.47 663.3 284.97 663.3 284.97L661.44 270.41Z" fill="black"/>
<path d="M661.13 270.36L619.33 264.06L612.91 280.19C612.91 280.19 609.45 287.58 611.79 291.42C614.13 295.26 639.58 307.01 660.79 299.42C663.169 295.219 664.103 290.353 663.45 285.57C662.4 277.43 662.98 284.93 662.98 284.93L661.13 270.36Z" fill="#FDD835"/>
<path opacity="0.1" d="M634.231 252.165L650.952 254.687L648.675 269.777C648.409 271.541 647.452 273.128 646.016 274.188C644.58 275.248 642.781 275.693 641.016 275.427L637.595 274.911C635.83 274.645 634.243 273.688 633.184 272.252C632.124 270.816 631.678 269.017 631.945 267.252L634.221 252.163L634.231 252.165Z" fill="black"/>
<path d="M634.313 251.545L651.034 254.068L648.757 269.157C648.491 270.922 647.534 272.509 646.098 273.568C644.661 274.628 642.863 275.074 641.098 274.808L637.687 274.293C635.922 274.027 634.335 273.07 633.275 271.634C632.216 270.198 631.77 268.399 632.036 266.634L634.313 251.545Z" fill="#FDA57D"/>
<path opacity="0.1" d="M634 253.91C639.084 256.737 645.012 257.648 650.71 256.48L651.02 254.43L634.3 251.91L634 253.91Z" fill="black"/>
<path d="M669.846 235.97C671.843 222.738 662.734 210.393 649.502 208.397C636.27 206.4 623.925 215.508 621.929 228.741C619.932 241.973 629.04 254.318 642.273 256.314C655.505 258.311 667.85 249.202 669.846 235.97Z" fill="#FDA57D"/>
<path d="M624.3 219.78L670 226.67C670 226.67 668.88 207.67 651.43 206.2C633.98 204.73 624.3 219.78 624.3 219.78Z" fill="#333333"/>
<path d="M624.796 228.12C625.144 225.81 624.431 223.787 623.202 223.602C621.973 223.416 620.694 225.139 620.346 227.449C619.997 229.759 620.711 231.782 621.94 231.967C623.168 232.152 624.447 230.43 624.796 228.12Z" fill="#FDA57D"/>
<path d="M671.61 235.187C671.959 232.877 671.245 230.854 670.017 230.669C668.788 230.483 667.509 232.206 667.161 234.516C666.812 236.826 667.526 238.849 668.754 239.034C669.983 239.219 671.262 237.497 671.61 235.187Z" fill="#FDA57D"/>
<path opacity="0.1" d="M624.23 220.4L669.93 227.29C669.93 227.29 668.81 208.29 651.36 206.82C633.91 205.35 624.23 220.4 624.23 220.4Z" fill="black"/>
<g opacity="0.5">
<path opacity="0.5" d="M462.527 182.791L70.3282 246.176L157.907 788.073L550.106 724.687L462.527 182.791Z" fill="url(#paint2_linear)"/>
</g>
<path d="M456.629 185.955L75.6351 248.413L162.229 776.632L543.223 714.174L456.629 185.955Z" fill="#F5F5F5"/>
<path d="M438.968 424.043L163.989 469.122L166.721 485.789L441.701 440.71L438.968 424.043Z" fill="#E0E0E0"/>
<path d="M445.798 465.709L170.819 510.788L173.551 527.456L448.53 482.377L445.798 465.709Z" fill="#E0E0E0"/>
<path d="M417.122 290.72L275.463 313.943L278.195 330.611L419.854 307.388L417.122 290.72Z" fill="#E0E0E0"/>
<path d="M411.448 334.436L294.786 353.561L297.518 370.229L414.181 351.104L411.448 334.436Z" fill="#6C63FF"/>
<path d="M419.303 512.837L177.649 552.453L180.381 569.12L422.035 529.505L419.303 512.837Z" fill="#E0E0E0"/>
<path d="M392.796 559.957L184.477 594.108L187.209 610.775L395.529 576.624L392.796 559.957Z" fill="#E0E0E0"/>
<path d="M374.631 605.726L191.308 635.779L194.04 652.447L377.363 622.394L374.631 605.726Z" fill="#E0E0E0"/>
<path d="M431.454 639.186L198.138 677.435L200.871 694.102L434.186 655.853L431.454 639.186Z" fill="#E0E0E0"/>
<path d="M296.632 704.078L204.975 719.104L207.708 735.772L299.364 720.746L296.632 704.078Z" fill="#6C63FF"/>
<g opacity="0.5">
<path opacity="0.5" d="M262.04 340.46C260.42 330.59 256.273 321.306 250.002 313.514C243.731 305.722 235.549 299.686 226.253 295.993C216.957 292.301 206.863 291.078 196.954 292.444C187.046 293.809 177.659 297.717 169.708 303.786C161.758 309.855 155.513 317.879 151.584 327.077C147.654 336.275 146.172 346.334 147.283 356.275C148.393 366.215 152.059 375.699 157.922 383.803C163.785 391.907 171.646 398.355 180.74 402.52L180.82 402.77C182.981 404.253 185.415 405.293 187.98 405.83V405.56C191.03 407.42 202.91 409.25 215.86 407.09H216.14C224.35 405.76 233.01 402.84 240.14 397.32C240.14 397.32 240.14 397.16 240.24 396.86C242.073 395.601 243.69 394.055 245.03 392.28C245.03 392.053 245.03 391.833 245.03 391.62C251.804 385.113 256.892 377.055 259.855 368.141C262.819 359.228 263.569 349.728 262.04 340.46V340.46Z" fill="url(#paint3_linear)"/>
</g>
<path d="M213.969 405.274C244.598 400.252 265.358 371.352 260.337 340.722C255.315 310.093 226.415 289.333 195.785 294.354C165.156 299.376 144.396 328.276 149.417 358.906C154.439 389.535 183.339 410.295 213.969 405.274Z" fill="#F5F5F5"/>
<path d="M184.42 375.45C184.42 375.45 171.42 378.7 178.82 402.2C180.915 403.65 183.278 404.67 185.77 405.2L189.08 378.82L184.42 375.45Z" fill="#4D8AF0"/>
<path d="M227.3 368.42C227.3 368.42 240.69 367.33 241.14 391.99C239.611 394.011 237.698 395.71 235.51 396.99L223.95 373.05L227.3 368.42Z" fill="#4D8AF0"/>
<path d="M203.505 355.281C217.081 353.056 226.282 340.246 224.057 326.67C221.831 313.093 209.021 303.892 195.445 306.118C181.869 308.343 172.667 321.153 174.893 334.729C177.119 348.306 189.929 357.507 203.505 355.281Z" fill="#333333"/>
<path d="M227.05 368.46L184.17 375.46L182.98 393.27C182.98 393.27 181.98 401.6 185.43 404.61C188.88 407.62 217.55 411.09 235.84 396.93C236.841 392.069 236.219 387.014 234.07 382.54C230.47 374.91 233.4 382.06 233.4 382.06L227.05 368.46Z" fill="#4D8AF0"/>
<path d="M227.62 368.37L184.74 375.37L183.55 393.18C183.55 393.18 182.55 401.51 186 404.52C189.45 407.53 218.12 411 236.41 396.84C237.411 391.979 236.789 386.924 234.64 382.45C231.04 374.82 233.97 381.97 233.97 381.97L227.62 368.37Z" fill="#4D8AF0"/>
<path d="M227.3 368.42L184.42 375.42L183.23 393.26C183.23 393.26 182.23 401.59 185.68 404.6C189.13 407.61 217.8 411.08 236.09 396.92C237.091 392.059 236.469 387.004 234.32 382.53C230.72 374.9 233.65 382.05 233.65 382.05L227.3 368.42Z" fill="#4D8AF0"/>
<path opacity="0.1" d="M195.254 359.053L212.405 356.241L214.972 371.902C215.261 373.663 214.838 375.467 213.797 376.917C212.755 378.367 211.181 379.343 209.419 379.632L205.541 380.268C203.78 380.557 201.976 380.134 200.526 379.092C199.076 378.051 198.1 376.477 197.811 374.715L195.244 359.054L195.254 359.053Z" fill="black"/>
<path d="M195.151 358.417L212.302 355.605L214.87 371.266C215.159 373.028 214.736 374.832 213.694 376.281C212.653 377.731 211.079 378.708 209.317 378.997L205.439 379.632C203.678 379.921 201.874 379.498 200.424 378.457C198.974 377.416 197.998 375.841 197.709 374.08L195.141 358.419L195.151 358.417Z" fill="#FDA57D"/>
<path opacity="0.1" d="M195.57 360.89C201.436 362.052 207.524 361.073 212.73 358.13L212.38 356.02L195.23 358.84L195.57 360.89Z" fill="black"/>
<path d="M204.387 360.619C217.963 358.393 227.165 345.583 224.939 332.007C222.713 318.431 209.904 309.229 196.327 311.455C182.751 313.681 173.55 326.49 175.775 340.067C178.001 353.643 190.811 362.844 204.387 360.619Z" fill="#FDA57D"/>
<path opacity="0.1" d="M175.41 331.19L222.3 323.51C222.3 323.51 215.19 305.23 197.67 309.35C180.15 313.47 175.41 331.19 175.41 331.19Z" fill="black"/>
<path d="M175.3 330.56L222.23 322.87C222.23 322.87 215.12 304.59 197.6 308.71C180.08 312.83 175.3 330.56 175.3 330.56Z" fill="#333333"/>
<path d="M177.103 344.699C178.371 344.494 179.088 342.4 178.703 340.022C178.319 337.643 176.979 335.881 175.711 336.086C174.442 336.291 173.725 338.385 174.11 340.764C174.494 343.142 175.834 344.904 177.103 344.699Z" fill="#FDA57D"/>
<path d="M224.832 335.348C226.096 335.141 226.806 333.051 226.418 330.68C226.029 328.309 224.689 326.555 223.425 326.763C222.16 326.97 221.45 329.06 221.839 331.431C222.228 333.801 223.568 335.555 224.832 335.348Z" fill="#FDA57D"/>
<g opacity="0.5">
<path opacity="0.5" d="M748.79 270.47H352.63V817.84H748.79V270.47Z" fill="url(#paint4_linear)"/>
</g>
<path d="M743.75 274.5H357.67V809.77H743.75V274.5Z" fill="white"/>
<g opacity="0.5">
<path opacity="0.5" d="M409.23 396.97C409.231 386.743 411.88 376.69 416.918 367.79C421.957 358.89 429.214 351.447 437.983 346.183C446.752 340.92 456.734 338.017 466.958 337.756C477.182 337.494 487.299 339.885 496.325 344.694C505.351 349.502 512.978 356.566 518.465 365.197C523.951 373.828 527.109 383.733 527.632 393.947C528.155 404.16 526.025 414.336 521.449 423.482C516.874 432.628 510.008 440.434 501.52 446.14V446.4C499.585 448.257 497.301 449.712 494.8 450.68L494.72 450.42C491.95 452.8 480.27 456.61 466.85 456.57H466.56C458.06 456.57 448.84 455.07 440.72 450.68C440.72 450.68 440.65 450.52 440.54 450.23C438.482 449.263 436.595 447.969 434.95 446.4L434.86 445.73C426.955 440.29 420.491 433.008 416.026 424.514C411.561 416.019 409.229 406.566 409.23 396.97Z" fill="url(#paint5_linear)"/>
</g>
<path d="M468.46 454.43C500.194 454.43 525.92 428.704 525.92 396.97C525.92 365.236 500.194 339.51 468.46 339.51C436.726 339.51 411 365.236 411 396.97C411 428.704 436.726 454.43 468.46 454.43Z" fill="#F5F5F5"/>
<path d="M445.92 418.86C445.92 418.86 432.23 419.97 435.85 444.97C437.728 446.771 439.944 448.181 442.37 449.12L450.07 423.05L445.92 418.86Z" fill="#BE7C5E"/>
<path d="M490.35 418.86C490.35 418.86 504.04 419.97 500.42 444.97C498.542 446.771 496.326 448.181 493.9 449.12L486.23 422.97L490.35 418.86Z" fill="#BE7C5E"/>
<path d="M446.51 377.97C446.51 377.97 445.46 381.04 443.96 384.59C440.7 392.35 444.42 422.17 452.22 425.35C460.97 428.92 472.48 431.2 484.43 426.84C494.82 423.05 498.02 389.11 490.68 380.84C489.82 379.84 488.92 378.91 487.98 377.97H446.51Z" fill="#333333"/>
<path d="M468.5 401.67C482.567 401.67 493.97 390.267 493.97 376.2C493.97 362.133 482.567 350.73 468.5 350.73C454.433 350.73 443.03 362.133 443.03 376.2C443.03 390.267 454.433 401.67 468.5 401.67Z" fill="#333333"/>
<path opacity="0.1" d="M490.09 418.86H445.66L441.51 436.63C441.51 436.63 439.07 444.86 442.1 448.48C445.13 452.1 473.43 460.33 494.23 449.07C496.042 444.331 496.249 439.128 494.82 434.26C492.45 425.97 494.23 433.67 494.23 433.67L490.09 418.86Z" fill="black"/>
<path opacity="0.1" d="M490.68 418.86H446.23L442.08 436.63C442.08 436.63 439.64 444.86 442.67 448.48C445.7 452.1 474 460.33 494.8 449.07C496.612 444.331 496.819 439.128 495.39 434.26C493.02 425.97 494.8 433.67 494.8 433.67L490.68 418.86Z" fill="black"/>
<path d="M490.35 418.86H445.92L441.77 436.63C441.77 436.63 439.33 444.86 442.36 448.48C445.39 452.1 473.69 460.33 494.49 449.07C496.302 444.331 496.509 439.128 495.08 434.26C492.71 425.97 494.49 433.67 494.49 433.67L490.35 418.86Z" fill="#3AD29F"/>
<path opacity="0.1" d="M459.55 404.11H477.32V420.49C477.32 422.275 476.611 423.987 475.349 425.249C474.087 426.511 472.375 427.22 470.59 427.22H466.27C464.485 427.22 462.773 426.511 461.511 425.249C460.249 423.987 459.54 422.275 459.54 420.49V404.11H459.55Z" fill="black"/>
<path d="M459.55 403.45H477.32V419.83C477.32 421.615 476.611 423.327 475.349 424.589C474.087 425.851 472.375 426.56 470.59 426.56H466.27C464.485 426.56 462.773 425.851 461.511 424.589C460.249 423.327 459.54 421.615 459.54 419.83V403.45H459.55Z" fill="#BE7C5E"/>
<path opacity="0.1" d="M459.58 405.97C465.313 408.094 471.617 408.094 477.35 405.97V403.79H459.58V405.97Z" fill="black"/>
<path d="M468.5 407.2C482.567 407.2 493.97 395.797 493.97 381.73C493.97 367.663 482.567 356.26 468.5 356.26C454.433 356.26 443.03 367.663 443.03 381.73C443.03 395.797 454.433 407.2 468.5 407.2Z" fill="#BE7C5E"/>
<path d="M444.14 372.06H492.72C492.72 372.06 488.57 352.44 470.21 353.7C451.85 354.96 444.14 372.06 444.14 372.06Z" fill="#333333"/>
<path d="M443.56 385.09C444.869 385.09 445.93 383.102 445.93 380.65C445.93 378.198 444.869 376.21 443.56 376.21C442.251 376.21 441.19 378.198 441.19 380.65C441.19 383.102 442.251 385.09 443.56 385.09Z" fill="#BE7C5E"/>
<path d="M493.32 385.09C494.629 385.09 495.69 383.102 495.69 380.65C495.69 378.198 494.629 376.21 493.32 376.21C492.011 376.21 490.95 378.198 490.95 380.65C490.95 383.102 492.011 385.09 493.32 385.09Z" fill="#BE7C5E"/>
<path opacity="0.1" d="M444.14 372.71H492.72C492.72 372.71 488.57 353.09 470.21 354.35C451.85 355.61 444.14 372.71 444.14 372.71Z" fill="black"/>
<path d="M687.8 506.6H409.15V523.49H687.8V506.6Z" fill="#E0E0E0"/>
<path d="M687.8 548.82H409.15V565.71H687.8V548.82Z" fill="#E0E0E0"/>
<path d="M687.81 371.5H544.26V388.39H687.81V371.5Z" fill="#E0E0E0"/>
<path d="M675.14 413.72H556.92V430.61H675.14V413.72Z" fill="#6C63FF"/>
<path d="M654.03 591.04H409.15V607.93H654.03V591.04Z" fill="#E0E0E0"/>
<path d="M620.25 633.26H409.15V650.15H620.25V633.26Z" fill="#E0E0E0"/>
<path d="M594.92 675.49H409.15V692.38H594.92V675.49Z" fill="#E0E0E0"/>
<path d="M645.58 717.71H409.15V734.6H645.58V717.71Z" fill="#E0E0E0"/>
<path d="M502.03 759.93H409.15V776.82H502.03V759.93Z" fill="#6C63FF"/>
<g opacity="0.5">
<path opacity="0.5" d="M722.07 852.95C768.677 852.95 806.46 815.167 806.46 768.56C806.46 721.953 768.677 684.17 722.07 684.17C675.463 684.17 637.68 721.953 637.68 768.56C637.68 815.167 675.463 852.95 722.07 852.95Z" fill="url(#paint6_linear)"/>
</g>
<path d="M722.07 847.98C765.932 847.98 801.49 812.422 801.49 768.56C801.49 724.698 765.932 689.14 722.07 689.14C678.207 689.14 642.65 724.698 642.65 768.56C642.65 812.422 678.207 847.98 722.07 847.98Z" fill="#69F0AE"/>
<path d="M687.6 757.96L717.38 785.26L759.57 723.22L774.47 735.63L717.38 810.08L675.19 762.93L687.6 757.96Z" fill="white"/>
</g>
<defs>
<linearGradient id="paint0_linear" x1="667.004" y1="675.82" x2="748.666" y2="134.576" gradientUnits="userSpaceOnUse">
<stop stop-color="#808080" stop-opacity="0.25"/>
<stop offset="0.54" stop-color="#808080" stop-opacity="0.12"/>
<stop offset="1" stop-color="#808080" stop-opacity="0.1"/>
</linearGradient>
<linearGradient id="paint1_linear" x1="66121" y1="83014.8" x2="68033.8" y2="70337.4" gradientUnits="userSpaceOnUse">
<stop stop-color="#808080" stop-opacity="0.25"/>
<stop offset="0.54" stop-color="#808080" stop-opacity="0.12"/>
<stop offset="1" stop-color="#808080" stop-opacity="0.1"/>
</linearGradient>
<linearGradient id="paint2_linear" x1="220107" y1="178802" x2="172168" y2="-117816" gradientUnits="userSpaceOnUse">
<stop stop-color="#808080" stop-opacity="0.25"/>
<stop offset="0.54" stop-color="#808080" stop-opacity="0.12"/>
<stop offset="1" stop-color="#808080" stop-opacity="0.1"/>
</linearGradient>
<linearGradient id="paint3_linear" x1="45465.3" y1="-4366.04" x2="43280.8" y2="-17691.4" gradientUnits="userSpaceOnUse">
<stop stop-color="#808080" stop-opacity="0.25"/>
<stop offset="0.54" stop-color="#808080" stop-opacity="0.12"/>
<stop offset="1" stop-color="#808080" stop-opacity="0.1"/>
</linearGradient>
<linearGradient id="paint4_linear" x1="190791" y1="390458" x2="190791" y2="90843.8" gradientUnits="userSpaceOnUse">
<stop stop-color="#808080" stop-opacity="0.25"/>
<stop offset="0.54" stop-color="#808080" stop-opacity="0.12"/>
<stop offset="1" stop-color="#808080" stop-opacity="0.1"/>
</linearGradient>
<linearGradient id="paint5_linear" x1="60259.5" y1="51151.2" x2="60259.5" y2="37027.8" gradientUnits="userSpaceOnUse">
<stop stop-color="#808080" stop-opacity="0.25"/>
<stop offset="0.54" stop-color="#808080" stop-opacity="0.12"/>
<stop offset="1" stop-color="#808080" stop-opacity="0.1"/>
</linearGradient>
<linearGradient id="paint6_linear" x1="110694" y1="126922" x2="110694" y2="98436.5" gradientUnits="userSpaceOnUse">
<stop stop-color="#808080" stop-opacity="0.25"/>
<stop offset="0.54" stop-color="#808080" stop-opacity="0.12"/>
<stop offset="1" stop-color="#808080" stop-opacity="0.1"/>
</linearGradient>
<clipPath id="clip0">
<rect x="70" y="105" width="874.47" height="747.94" fill="white"/>
</clipPath>
</defs>
</svg>
