<svg xmlns="http://www.w3.org/2000/svg" width="133.25" height="16.578" viewBox="0 0 730.937 90.937">
  <defs>
    <style>
      .cls-1 {
        fill: #fff;
        fill-rule: evenodd;
      }
    </style>
  </defs>
  <path id="CurríMaker" class="cls-1" d="M194.792,321.505a47.848,47.848,0,0,0-13.629-6.036,61.146,61.146,0,0,0-15.961-1.992,70.035,70.035,0,0,0-40.592,13.067,58.977,58.977,0,0,0-14.338,14.589,49.452,49.452,0,0,0-7.611,17.7,36.912,36.912,0,0,0,.954,20.244,33.545,33.545,0,0,0,11.754,15.732,42.851,42.851,0,0,0,13.759,6.914,57.789,57.789,0,0,0,16.766,2.344,71.684,71.684,0,0,0,16.546-1.933,70.129,70.129,0,0,0,15.5-5.625l6.321-22.559a80.936,80.936,0,0,1-17.074,8.086,51.536,51.536,0,0,1-16,2.695q-13.079,0-19.7-7.236t-4.157-18.9a31.551,31.551,0,0,1,12.268-19.1,36.568,36.568,0,0,1,22.739-7.442,33.3,33.3,0,0,1,13.655,2.754,36.634,36.634,0,0,1,11.61,8.438Zm42.967,54.14a16.336,16.336,0,0,1-5.071,9.346,14.128,14.128,0,0,1-9.548,3.252q-4.006,0-5.595-2.139t-0.7-6.3l6.62-31.289H201.452l-7.711,36.446q-1.959,9.258,2.262,14.062t14.277,4.805a33.593,33.593,0,0,0,12.837-2.52,47.135,47.135,0,0,0,12.407-7.793l-2.182,10.313,20.853-2.52,11.171-52.793H243.5Zm59.981,2.637q1.587-7.5,5.553-9.463t14.3-1.963h4.782l4.165-19.687h-1.758a32.146,32.146,0,0,0-13.224,2.519,31.792,31.792,0,0,0-10.606,8.086l1.537-9.258h-20.6l-11.171,52.793h22.148Zm56.039,0q1.587-7.5,5.553-9.463t14.3-1.963h4.782l4.165-19.687h-1.758a32.146,32.146,0,0,0-13.224,2.519,31.8,31.8,0,0,0-10.606,8.086l1.537-9.258h-20.6l-11.171,52.793h22.148ZM416.227,346l-22.822,2.519-11.17,52.793h22.289ZM406,339.493l25.033-20.274h-15.61l-18.634,20.274H406Zm31.5,61.816,17.262-39.375,20.4,42.481h1.617L513,362.52l0.441,38.789H536.57l-2.744-87.715H532l-47.985,55.313-26.757-55.313H455.5l-39.724,87.715H437.5Zm154.817-15.234a26.564,26.564,0,0,1-5.372,2.959,12.954,12.954,0,0,1-4.669.967,9.513,9.513,0,0,1-8.3-4.131q-2.886-4.131-1.573-10.342a19.117,19.117,0,0,1,6.614-10.986,17.467,17.467,0,0,1,11.471-4.366,14.386,14.386,0,0,1,6.941,1.758ZM603.375,349.1a50.789,50.789,0,0,0-7.45-2.344A30.98,30.98,0,0,0,589.2,346a41.248,41.248,0,0,0-25.386,8.32A34.729,34.729,0,0,0,550,375.411q-2.568,12.129,4.042,20.273t18.843,8.145a30.62,30.62,0,0,0,8.593-1.231,44.487,44.487,0,0,0,8.926-3.808l0.9,5.039,21.453-4.688a61.453,61.453,0,0,1,.68-7.207q0.612-4.218,1.926-10.429l6.981-32.989Zm51.916,24.141,17.4,28.066h24.329L676.21,371.075l26.781-22.559H679.929l-24.006,21.739,11.654-55.079-21.838,2.52-17.692,83.613h21.3Zm77.293-11.4a19.522,19.522,0,0,1,10.6-2.9q5.341,0,8.294,2.666a6.715,6.715,0,0,1,2.072,6.826l-0.173.82-27.641.7A17.4,17.4,0,0,1,732.584,361.846Zm17.985,26.162a45.409,45.409,0,0,1-11.963,1.875q-7.383,0-11.535-3.31a9.026,9.026,0,0,1-3.514-8.643l43.453-1,2.476-2.4,0.145-.352q1.013-3.456,1.348-5.039,2.156-10.2-4.817-16.611t-19.982-6.416a47.037,47.037,0,0,0-27.659,8.76q-12.472,8.76-15.162,21.474-2.579,12.189,5.519,19.776t23.918,7.588a69.55,69.55,0,0,0,12.917-1.231,85.026,85.026,0,0,0,13.533-3.808l5.895-16.231A91.938,91.938,0,0,1,750.569,388.008Zm53.28-9.726q1.587-7.5,5.554-9.463t14.3-1.963h4.781l4.165-19.687h-1.758a32.153,32.153,0,0,0-13.224,2.519,31.789,31.789,0,0,0-10.605,8.086l1.537-9.258H788l-11.171,52.793h22.149Z" transform="translate(-101.719 -313.469)"/>
</svg>
